<svg version="1.1" xmlns="http://www.w3.org/2000/svg" viewBox="0 0 1048.68497755708 781.6977364619743" width="1048.68497755708" height="781.6977364619743">
  <!-- svg-source:excalidraw -->
  
  <defs>
    <style class="style-fonts">
      @font-face {
        font-family: "Virgil";
        src: url("https://excalidraw.com/Virgil.woff2");
      }
      @font-face {
        font-family: "Cascadia";
        src: url("https://excalidraw.com/Cascadia.woff2");
      }
    </style>
  </defs>
  <rect x="0" y="0" width="1048.68497755708" height="781.6977364619743" fill="#ffffff"></rect><g stroke-linecap="round" transform="translate(11.949545737363223 267.90294486822586) rotate(0 24.576560455953995 24.576560455953768)"><path d="M29.7 1.13 C34.66 2.08, 39.96 6.34, 43.23 10.47 C46.5 14.59, 49.41 20.88, 49.31 25.86 C49.22 30.83, 46.1 36.32, 42.66 40.32 C39.22 44.32, 33.88 49.15, 28.68 49.84 C23.47 50.54, 15.92 47.5, 11.41 44.48 C6.9 41.46, 3.11 36.56, 1.61 31.73 C0.11 26.89, 0.61 20.31, 2.41 15.48 C4.22 10.66, 7.1 5.1, 12.43 2.8 C17.77 0.49, 29.78 1.25, 34.42 1.64 C39.07 2.03, 40.34 4.59, 40.31 5.15 M25.03 0.91 C29.94 0.42, 35.59 1.04, 39.66 4.24 C43.74 7.44, 48.2 14.53, 49.48 20.1 C50.77 25.67, 50.19 33.08, 47.36 37.64 C44.53 42.2, 37.83 45.87, 32.5 47.47 C27.18 49.08, 20.37 48.99, 15.41 47.29 C10.44 45.59, 5.44 41.46, 2.69 37.28 C-0.06 33.1, -2.17 27.58, -1.07 22.22 C0.02 16.86, 5.22 8.73, 9.28 5.15 C13.34 1.57, 20.8 1.72, 23.29 0.74 C25.77 -0.24, 24.25 -1.26, 24.19 -0.73" stroke="#000000" stroke-width="1" fill="none"></path></g><g stroke-linecap="round"><g transform="translate(36.219318122260574 317.7316698318864) rotate(0 0.7365248771906181 24.808227956544215)"><path d="M0.51 -0.97 C0.82 7.09, 1.72 40.88, 2.15 49.08 M-0.68 1.14 C-0.58 9.33, 0.48 42.59, 1.05 50.58" stroke="#000000" stroke-width="1" fill="none"></path></g></g><mask></mask><g stroke-linecap="round"><g transform="translate(37.279019029754636 365.3819627786879) rotate(0 -8.739813301955564 15.051946992824924)"><path d="M-0.91 1.15 C-3.81 5.94, -14.63 24.9, -17.45 29.39 M0.81 0.72 C-2.22 5.07, -15.04 22.79, -18.29 27.49" stroke="#000000" stroke-width="1" fill="none"></path></g></g><mask></mask><g stroke-linecap="round"><g transform="translate(37.279019029754636 365.3819627786879) rotate(0 8.485617541668375 13.7121718445228)"><path d="M1.15 0.21 C3.82 4.81, 14.3 22.1, 16.67 26.69 M0.3 -0.72 C2.78 4.15, 13.03 23.71, 15.94 28.14" stroke="#000000" stroke-width="1" fill="none"></path></g></g><mask></mask><g stroke-linecap="round"><g transform="translate(11.13415278655475 342.770186568353) rotate(0 26.911042974742372 -1.3052591801374547)"><path d="M0.21 0.42 C9.52 -0.28, 45.66 -2.79, 54.96 -3.03 M-1.13 -0.41 C8.09 -0.47, 44.45 -1.57, 53.92 -1.97" stroke="#000000" stroke-width="1" fill="none"></path></g></g><mask></mask><g stroke-linecap="round" transform="translate(228.633065916061 506.65937933877285) rotate(0 68.2918460092576 131.96937809897054)"><path d="M7.86 8.16 C7.86 8.16, 7.86 8.16, 7.86 8.16 M7.86 8.16 C7.86 8.16, 7.86 8.16, 7.86 8.16 M3.66 19.09 C8.24 11.93, 13.59 7.81, 18.1 2.48 M3.66 19.09 C9.48 14.1, 13.58 7.93, 18.1 2.48 M2.75 26.24 C9.32 17.52, 19.34 10.15, 24.4 1.33 M2.75 26.24 C11.11 18.27, 17.33 10, 24.4 1.33 M2.48 32.64 C8.43 26.46, 17.26 18.45, 30.7 0.18 M2.48 32.64 C8.46 25.5, 14.26 19.57, 30.7 0.18 M2.88 38.28 C13.44 28.08, 20.15 18.87, 34.37 2.05 M2.88 38.28 C15.11 24.34, 26.38 11.25, 34.37 2.05 M2.62 44.68 C17.83 29.09, 30.85 13.47, 39.36 2.41 M2.62 44.68 C11.37 34.57, 20.3 24.15, 39.36 2.41 M2.36 51.07 C13.51 39.08, 19.84 29.51, 45 2.02 M2.36 51.07 C13.67 37.31, 26.98 22.8, 45 2.02 M2.75 56.72 C14.64 45.45, 24.95 33.03, 49.99 2.38 M2.75 56.72 C19.49 37.85, 34.75 19.83, 49.99 2.38 M2.49 63.11 C18.06 46.74, 31.92 28.68, 55.63 1.98 M2.49 63.11 C15.48 46.72, 28.43 30.76, 55.63 1.98 M2.23 69.51 C20.94 47.17, 43.16 24.27, 60.62 2.34 M2.23 69.51 C16.88 52.8, 30.32 37.26, 60.62 2.34 M2.62 75.16 C21.55 55.33, 38.13 31.13, 66.26 1.95 M2.62 75.16 C24.94 51.74, 44.69 27.64, 66.26 1.95 M2.36 81.55 C17.09 64.38, 35.44 44.31, 71.25 2.31 M2.36 81.55 C21.92 58.48, 41.95 38.13, 71.25 2.31 M2.76 87.2 C20.12 66.51, 39.93 45.71, 76.23 2.67 M2.76 87.2 C23.17 64.56, 43.02 39.19, 76.23 2.67 M2.49 93.59 C24.62 66.53, 47.41 39.14, 81.88 2.27 M2.49 93.59 C20.9 71.5, 41 49.72, 81.88 2.27 M2.23 99.99 C20.65 77.67, 43.74 54.18, 86.86 2.63 M2.23 99.99 C23.75 76.16, 43.13 53.08, 86.86 2.63 M2.63 105.64 C28.2 78.99, 50.72 50.27, 92.51 2.24 M2.63 105.64 C29.3 75.07, 57.12 44.64, 92.51 2.24 M2.37 112.03 C31.54 78.51, 63.43 40.07, 97.49 2.6 M2.37 112.03 C23.17 86.93, 44.58 64.06, 97.49 2.6 M2.1 118.43 C25.95 89.07, 50.87 61.44, 103.14 2.21 M2.1 118.43 C31.55 85.46, 60.23 51.66, 103.14 2.21 M2.5 124.07 C27.56 98.15, 50.12 68.75, 108.12 2.57 M2.5 124.07 C43.1 78.86, 81.92 32.45, 108.12 2.57 M2.24 130.47 C25.94 103.92, 47.79 80.51, 113.77 2.17 M2.24 130.47 C28.93 100.29, 54.32 69.27, 113.77 2.17 M2.63 136.11 C33.13 99.95, 67.23 64.04, 118.76 2.53 M2.63 136.11 C47.27 86.54, 91.4 34.95, 118.76 2.53 M2.37 142.51 C36.18 103.14, 67.02 63.8, 122.43 4.4 M2.37 142.51 C26.68 115.66, 50.79 88.28, 122.43 4.4 M2.11 148.91 C31.15 114.25, 59.85 78.39, 126.1 6.27 M2.11 148.91 C30.74 115.86, 59.99 84.23, 126.1 6.27 M2.5 154.55 C41.12 105.49, 85.94 60.03, 129.12 8.89 M2.5 154.55 C36.98 115.45, 70.16 76.37, 129.12 8.89 M2.24 160.95 C40.34 113.84, 83.81 64.44, 131.49 12.27 M2.24 160.95 C31.37 124.18, 62.93 88.22, 131.49 12.27 M1.98 167.35 C48.61 116.98, 92.41 64.27, 133.85 15.65 M1.98 167.35 C44.94 117.47, 88.96 67.3, 133.85 15.65 M2.38 172.99 C46.81 121.66, 91.33 70.72, 136.21 19.03 M2.38 172.99 C34.12 136.35, 66.79 96.91, 136.21 19.03 M2.11 179.39 C34.2 144.94, 61.62 110.28, 136.61 24.67 M2.11 179.39 C45.54 129.08, 88.79 79.32, 136.61 24.67 M2.51 185.03 C47.94 131.61, 94.48 80, 137.66 29.56 M2.51 185.03 C31.29 152.13, 58.75 119.3, 137.66 29.56 M2.25 191.43 C33.24 158.47, 59.98 123.86, 138.71 34.45 M2.25 191.43 C54.58 130.46, 107.61 70.92, 138.71 34.45 M1.99 197.83 C31.1 163.37, 61.1 130.65, 139.1 40.09 M1.99 197.83 C31.25 163.17, 60.86 129.55, 139.1 40.09 M2.38 203.47 C45.43 156.94, 83.6 108.98, 138.84 46.49 M2.38 203.47 C41.52 158.87, 80.6 114.68, 138.84 46.49 M2.12 209.87 C41.04 167, 75.08 127.88, 139.24 52.14 M2.12 209.87 C37.6 168.4, 72.35 125.38, 139.24 52.14 M1.86 216.27 C50.78 160.33, 101.37 102.77, 138.97 58.53 M1.86 216.27 C30.66 181.69, 60.92 148.43, 138.97 58.53 M2.25 221.91 C32.03 184.75, 65.19 148.74, 138.71 64.93 M2.25 221.91 C40.14 177.36, 78.37 132.89, 138.71 64.93 M1.99 228.31 C30.8 195.02, 60.19 159.7, 139.11 70.57 M1.99 228.31 C56.85 168.33, 108.16 107, 139.11 70.57 M2.39 233.95 C39.02 191.13, 76.35 147.7, 138.85 76.97 M2.39 233.95 C44.09 184.29, 88.36 133.79, 138.85 76.97 M2.78 239.59 C35.78 202.3, 64.63 167.02, 139.24 82.61 M2.78 239.59 C34.1 202.86, 66.18 166.64, 139.24 82.61 M2.52 245.99 C54.31 188.31, 106.31 125.68, 138.98 89.01 M2.52 245.99 C47.79 191.39, 94.51 138.6, 138.98 89.01 M4.23 250.13 C41.3 207.28, 81.25 161.79, 138.72 95.41 M4.23 250.13 C32.09 218.46, 59.51 185.52, 138.72 95.41 M6.59 253.5 C58.3 193.17, 107.26 135.65, 139.11 101.05 M6.59 253.5 C36.72 217.32, 69.21 181.23, 139.11 101.05 M8.95 256.88 C56.32 197.86, 107.48 140.44, 138.85 107.45 M8.95 256.88 C60.24 200.2, 110.53 141.08, 138.85 107.45 M12.63 258.75 C50.58 214.31, 89.89 167.05, 139.25 113.09 M12.63 258.75 C41.95 226.01, 71.45 193.1, 139.25 113.09 M16.3 260.62 C47.74 225.38, 84.14 185.69, 138.98 119.49 M16.3 260.62 C50.88 222.42, 83.45 184.04, 138.98 119.49 M19.32 263.25 C53.03 227.66, 80.81 189.98, 138.72 125.89 M19.32 263.25 C49.02 230.9, 78.35 196.9, 138.72 125.89 M23.65 264.36 C49.02 235.99, 71.49 207.92, 139.12 131.53 M23.65 264.36 C68.81 213.36, 112.59 162.58, 139.12 131.53 M27.33 266.23 C64.63 224.12, 102.1 178.84, 138.86 137.93 M27.33 266.23 C66.03 220.61, 104.03 176.2, 138.86 137.93 M32.97 265.84 C75.21 220.28, 116.24 171.74, 139.25 143.57 M32.97 265.84 C62.35 234.15, 90.84 201.3, 139.25 143.57 M37.96 266.2 C64.66 237.26, 87.63 205.8, 138.99 149.97 M37.96 266.2 C69.77 230.82, 100.71 194.87, 138.99 149.97 M43.6 265.8 C75.95 227.9, 109.3 194.03, 138.73 156.37 M43.6 265.8 C70.01 233.68, 96.94 202.33, 138.73 156.37 M48.59 266.16 C84.44 225.56, 118.27 186.52, 139.12 162.01 M48.59 266.16 C68.78 242.08, 89.03 218.99, 139.12 162.01 M53.57 266.52 C79.69 237.67, 105.25 207.51, 138.86 168.41 M53.57 266.52 C73.83 243.49, 93.02 220.06, 138.86 168.41 M59.22 266.13 C86.68 238.51, 110.7 207.02, 139.25 174.05 M59.22 266.13 C86.88 234.14, 112.76 203.21, 139.25 174.05 M64.2 266.49 C82.87 244.03, 100.26 223.84, 138.99 180.45 M64.2 266.49 C86.49 239.78, 107.76 213.83, 138.99 180.45 M69.85 266.09 C89.43 243.95, 107.64 223.76, 138.73 186.85 M69.85 266.09 C95.34 236.44, 123.31 206.22, 138.73 186.85 M74.83 266.45 C96.6 242.46, 117.19 218.13, 139.13 192.49 M74.83 266.45 C96.94 242.44, 118.79 218.82, 139.13 192.49 M80.48 266.06 C97.68 245.32, 114.04 228.35, 138.87 198.89 M80.48 266.06 C93.86 252.02, 106.29 237.65, 138.87 198.89 M85.46 266.42 C101.89 248.34, 119.51 229.64, 139.26 204.53 M85.46 266.42 C106.3 243.28, 125.76 221.45, 139.26 204.53 M90.45 266.78 C102.59 251.7, 116.48 240.2, 139 210.93 M90.45 266.78 C103.51 253.4, 113.69 241.09, 139 210.93 M96.09 266.38 C103.2 258.23, 112.5 246.56, 138.74 217.33 M96.09 266.38 C108.71 252.35, 122.27 236.99, 138.74 217.33 M101.08 266.74 C109.08 256.82, 118.8 245.77, 139.13 222.97 M101.08 266.74 C114.42 251.79, 127.19 235.35, 139.13 222.97 M106.72 266.35 C116.89 255.37, 123.44 247.84, 136.9 231.63 M106.72 266.35 C113.79 259.5, 119.14 250.77, 136.9 231.63 M113.02 265.2 C118.95 258.55, 122.38 252.49, 135.98 238.79 M113.02 265.2 C117.22 260.41, 121.54 253.42, 135.98 238.79 M119.98 263.3 C127.34 254.02, 135.9 246.46, 139 241.41 M119.98 263.3 C124.82 257.23, 128.68 253.54, 139 241.41" stroke="#7950f2" stroke-width="0.5" fill="none"></path><path d="M32 0 M32 0 C55.85 -0.83, 76.14 0.03, 104.58 0 M32 0 C54.92 0.78, 79.56 -0.03, 104.58 0 M104.58 0 C124.2 1.63, 136.03 11.64, 136.58 32 M104.58 0 C127.45 -1.55, 137.01 10.35, 136.58 32 M136.58 32 C137.91 84.06, 134.92 136.73, 136.58 231.94 M136.58 32 C135.9 112.06, 136.17 190.65, 136.58 231.94 M136.58 231.94 C137.04 251.31, 127.65 262.85, 104.58 263.94 M136.58 231.94 C136.88 251.17, 125.57 263.14, 104.58 263.94 M104.58 263.94 C74.94 262.15, 50.08 263.24, 32 263.94 M104.58 263.94 C88.88 263.37, 72.9 262.59, 32 263.94 M32 263.94 C9.35 262.3, -0.73 251.96, 0 231.94 M32 263.94 C11.67 262.51, -1.97 251.69, 0 231.94 M0 231.94 C-3.21 175.06, -0.85 114.97, 0 32 M0 231.94 C-1.41 154.63, -0.49 75.21, 0 32 M0 32 C-1.62 8.99, 9.04 -0.72, 32 0 M0 32 C1.19 8.41, 10.86 1.51, 32 0" stroke="#000000" stroke-width="1" fill="none"></path></g><g transform="translate(252.64157910061158 614.6287574377429) rotate(0 44.28333282470703 24)"><text x="44.28333282470703" y="0" font-family="Virgil, Segoe UI Emoji" font-size="20px" fill="#000000" text-anchor="middle" style="white-space: pre;" direction="ltr" dominant-baseline="text-before-edge">User</text><text x="44.28333282470703" y="24" font-family="Virgil, Segoe UI Emoji" font-size="20px" fill="#000000" text-anchor="middle" style="white-space: pre;" direction="ltr" dominant-baseline="text-before-edge">interface</text></g><g stroke-linecap="round" transform="translate(508.59247189837424 191.31989826848894) rotate(0 68.2918460092576 131.96937809897054)"><path d="M7.86 8.16 C7.86 8.16, 7.86 8.16, 7.86 8.16 M7.86 8.16 C7.86 8.16, 7.86 8.16, 7.86 8.16 M3.66 19.09 C9.21 13.71, 14.83 5.5, 18.1 2.48 M3.66 19.09 C9.63 12.86, 15.13 4.97, 18.1 2.48 M2.75 26.24 C7.58 17.65, 14.92 11.86, 24.4 1.33 M2.75 26.24 C10.89 17.59, 18.39 7.97, 24.4 1.33 M2.48 32.64 C9.86 25.55, 16.07 19.24, 30.7 0.18 M2.48 32.64 C10.15 23.03, 18.58 14.22, 30.7 0.18 M2.88 38.28 C12.1 27.57, 19.77 18.42, 34.37 2.05 M2.88 38.28 C14.05 23.91, 25.56 11.67, 34.37 2.05 M2.62 44.68 C17.37 29.47, 31.74 12.77, 39.36 2.41 M2.62 44.68 C13.36 31.66, 25.15 18.23, 39.36 2.41 M2.36 51.07 C14.3 37.22, 21.85 27.13, 45 2.02 M2.36 51.07 C11.6 40.56, 20.09 29.88, 45 2.02 M2.75 56.72 C17.86 41.83, 30.09 25.86, 49.99 2.38 M2.75 56.72 C14.45 43.01, 28.86 27.24, 49.99 2.38 M2.49 63.11 C24.41 39.48, 46.31 14.24, 55.63 1.98 M2.49 63.11 C23.29 39.69, 41.45 18.13, 55.63 1.98 M2.23 69.51 C23.56 43.73, 44.47 19.77, 60.62 2.34 M2.23 69.51 C17.24 52.81, 32.49 33.66, 60.62 2.34 M2.62 75.16 C21.92 55.68, 39.98 32.48, 66.26 1.95 M2.62 75.16 C15.44 59.14, 28.93 44.15, 66.26 1.95 M2.36 81.55 C25.82 55.14, 47.18 31.23, 71.25 2.31 M2.36 81.55 C26.3 55.4, 50.4 27.78, 71.25 2.31 M2.76 87.2 C27.81 60.65, 48.02 32.83, 76.23 2.67 M2.76 87.2 C24.3 61.75, 48.02 34.92, 76.23 2.67 M2.49 93.59 C31.29 59.79, 61.73 24.39, 81.88 2.27 M2.49 93.59 C23.51 69.5, 43.75 45.71, 81.88 2.27 M2.23 99.99 C28.89 70.64, 52.05 41.76, 86.86 2.63 M2.23 99.99 C25.21 73.22, 47.05 47.12, 86.86 2.63 M2.63 105.64 C29.18 74.39, 58.88 40.68, 92.51 2.24 M2.63 105.64 C30.82 72.4, 58.2 40.06, 92.51 2.24 M2.37 112.03 C30.13 82.17, 58.2 49.8, 97.49 2.6 M2.37 112.03 C34.11 76.94, 63.91 41.88, 97.49 2.6 M2.1 118.43 C39.22 72.84, 76.37 27.89, 103.14 2.21 M2.1 118.43 C36.02 80.42, 69.44 41.48, 103.14 2.21 M2.5 124.07 C38.78 80.89, 73.84 36.88, 108.12 2.57 M2.5 124.07 C36.9 85.01, 72.73 45.02, 108.12 2.57 M2.24 130.47 C45.37 81.97, 92.09 29.09, 113.77 2.17 M2.24 130.47 C29.51 98.18, 56.82 67, 113.77 2.17 M2.63 136.11 C44.97 89.13, 85.02 38.59, 118.76 2.53 M2.63 136.11 C45.43 86.31, 89.06 36.65, 118.76 2.53 M2.37 142.51 C37.87 102.75, 70.76 64.04, 122.43 4.4 M2.37 142.51 C45.59 93.67, 88.46 44.46, 122.43 4.4 M2.11 148.91 C32.14 113.91, 62.51 80.18, 126.1 6.27 M2.11 148.91 C52.14 92.78, 98.97 36.83, 126.1 6.27 M2.5 154.55 C38.69 110.95, 74.56 71.52, 129.12 8.89 M2.5 154.55 C34.51 117.13, 67.18 80.64, 129.12 8.89 M2.24 160.95 C41.64 115.39, 83.09 67.8, 131.49 12.27 M2.24 160.95 C42.31 113.44, 82.46 67.35, 131.49 12.27 M1.98 167.35 C51.34 109.71, 99.02 58.1, 133.85 15.65 M1.98 167.35 C39 124.69, 77.45 80.11, 133.85 15.65 M2.38 172.99 C45.21 123.67, 89.74 72.25, 136.21 19.03 M2.38 172.99 C43.32 125.29, 85.27 77.62, 136.21 19.03 M2.11 179.39 C30.2 145.08, 56.97 114.24, 136.61 24.67 M2.11 179.39 C43.32 132.34, 84.83 84.33, 136.61 24.67 M2.51 185.03 C36.58 143.08, 74.29 103.52, 137.66 29.56 M2.51 185.03 C55.6 122.41, 107.2 62.75, 137.66 29.56 M2.25 191.43 C33.66 156.96, 63.52 117.84, 138.71 34.45 M2.25 191.43 C42.9 144.74, 84.98 96.15, 138.71 34.45 M1.99 197.83 C43.1 150.67, 85.31 102.12, 139.1 40.09 M1.99 197.83 C54.51 136.59, 107.1 74.52, 139.1 40.09 M2.38 203.47 C52.44 146.51, 100.52 90.44, 138.84 46.49 M2.38 203.47 C30.93 169.89, 58 138.61, 138.84 46.49 M2.12 209.87 C41.65 164.39, 80.46 119.32, 139.24 52.14 M2.12 209.87 C49.76 156.33, 96.67 100.45, 139.24 52.14 M1.86 216.27 C36.36 173, 72.88 132.14, 138.97 58.53 M1.86 216.27 C35.15 178.19, 68.97 139.83, 138.97 58.53 M2.25 221.91 C37.9 183.14, 68.52 146.01, 138.71 64.93 M2.25 221.91 C50.51 165, 100.71 106.6, 138.71 64.93 M1.99 228.31 C43.77 183.03, 82.78 134.08, 139.11 70.57 M1.99 228.31 C31.14 194.78, 59.12 162.4, 139.11 70.57 M2.39 233.95 C32.01 195.69, 64.61 157.79, 138.85 76.97 M2.39 233.95 C50.78 179.66, 99.12 124.34, 138.85 76.97 M2.78 239.59 C51.65 182.36, 101.99 126.59, 139.24 82.61 M2.78 239.59 C31.56 207.66, 58.16 175.4, 139.24 82.61 M2.52 245.99 C51.36 190.62, 97.52 136.15, 138.98 89.01 M2.52 245.99 C37.69 206.92, 72.46 166.47, 138.98 89.01 M4.23 250.13 C47.07 206.5, 85.67 159.12, 138.72 95.41 M4.23 250.13 C38.23 210.21, 72.15 171.08, 138.72 95.41 M6.59 253.5 C44.59 207.64, 80.78 165.24, 139.11 101.05 M6.59 253.5 C39.06 218, 69.76 181.65, 139.11 101.05 M8.95 256.88 C36.89 222.25, 65.3 192.09, 138.85 107.45 M8.95 256.88 C50.32 208.86, 91.68 162.2, 138.85 107.45 M12.63 258.75 C59.89 205.79, 104 151.67, 139.25 113.09 M12.63 258.75 C48.52 215.08, 85.87 173.03, 139.25 113.09 M16.3 260.62 C44.08 230.77, 68.7 201.35, 138.98 119.49 M16.3 260.62 C52.12 220.85, 86.59 180.72, 138.98 119.49 M19.32 263.25 C62.06 212.52, 102.46 164.89, 138.72 125.89 M19.32 263.25 C51.5 226.63, 82.93 190.22, 138.72 125.89 M23.65 264.36 C50.66 233.57, 81.43 200.37, 139.12 131.53 M23.65 264.36 C64.76 215.61, 106.97 169.18, 139.12 131.53 M27.33 266.23 C50.46 237.63, 75.51 210.3, 138.86 137.93 M27.33 266.23 C71.92 214.57, 117.22 164.31, 138.86 137.93 M32.97 265.84 C57.85 238.05, 81.18 209.31, 139.25 143.57 M32.97 265.84 C65.08 227.62, 97 189.62, 139.25 143.57 M37.96 266.2 C74.14 226.37, 106.26 188.07, 138.99 149.97 M37.96 266.2 C75.14 221.37, 113.39 178.37, 138.99 149.97 M43.6 265.8 C80.99 220.93, 120.41 179.78, 138.73 156.37 M43.6 265.8 C79.38 222.09, 116.25 179.75, 138.73 156.37 M48.59 266.16 C78.99 230.57, 111.31 197.2, 139.12 162.01 M48.59 266.16 C76.86 236, 104.54 203.89, 139.12 162.01 M53.57 266.52 C78.19 238.78, 102.26 209.29, 138.86 168.41 M53.57 266.52 C71.54 247.15, 89.74 226.35, 138.86 168.41 M59.22 266.13 C79.1 241.46, 102.45 217.69, 139.25 174.05 M59.22 266.13 C86.61 235.43, 113.48 204.9, 139.25 174.05 M64.2 266.49 C95.12 233.39, 125.35 199.69, 138.99 180.45 M64.2 266.49 C85.48 241.84, 107.79 217.25, 138.99 180.45 M69.85 266.09 C93.05 240.22, 119.63 209.79, 138.73 186.85 M69.85 266.09 C85.32 247.46, 101.59 229.91, 138.73 186.85 M74.83 266.45 C96.21 243.79, 113.83 222.67, 139.13 192.49 M74.83 266.45 C93.59 246.42, 110.92 225.35, 139.13 192.49 M80.48 266.06 C98.67 245.38, 115.78 228.04, 138.87 198.89 M80.48 266.06 C102.51 240.71, 123.04 216.95, 138.87 198.89 M85.46 266.42 C101.38 245.82, 120.92 224.76, 139.26 204.53 M85.46 266.42 C106.18 242.33, 125.2 218.69, 139.26 204.53 M90.45 266.78 C108.82 243.87, 127.85 219.87, 139 210.93 M90.45 266.78 C109.66 244.52, 126.99 223.87, 139 210.93 M96.09 266.38 C107.21 253.69, 120.3 236.17, 138.74 217.33 M96.09 266.38 C107.43 251.84, 121.18 237.83, 138.74 217.33 M101.08 266.74 C114.83 248.91, 130.37 233.2, 139.13 222.97 M101.08 266.74 C115.06 252.06, 127.61 235.41, 139.13 222.97 M106.72 266.35 C119.66 251.62, 130.2 239.45, 136.9 231.63 M106.72 266.35 C115.25 256.94, 121.64 248.1, 136.9 231.63 M113.02 265.2 C121.49 255.33, 131.18 242.37, 135.98 238.79 M113.02 265.2 C120.15 256.61, 127.18 247.81, 135.98 238.79 M119.98 263.3 C125.26 255.62, 127.96 252.64, 139 241.41 M119.98 263.3 C124.47 257.39, 129.82 251.36, 139 241.41" stroke="#228be6" stroke-width="0.5" fill="none"></path><path d="M32 0 M32 0 C46.37 -0.72, 63.06 -0.65, 104.58 0 M32 0 C48.49 -0.78, 62.46 0.93, 104.58 0 M104.58 0 C126.91 0.33, 138.4 11.91, 136.58 32 M104.58 0 C123.66 -0.38, 138.57 12.41, 136.58 32 M136.58 32 C133.34 83.64, 136 134.75, 136.58 231.94 M136.58 32 C138.75 93.59, 138.34 155.98, 136.58 231.94 M136.58 231.94 C137.23 252.05, 123.96 264.71, 104.58 263.94 M136.58 231.94 C137.22 252.25, 127.29 264.09, 104.58 263.94 M104.58 263.94 C77.69 262.07, 48.2 265.16, 32 263.94 M104.58 263.94 C89.24 264.29, 73.11 263.6, 32 263.94 M32 263.94 C8.79 262.01, 1.9 253.19, 0 231.94 M32 263.94 C12.19 264.65, 0.54 251.81, 0 231.94 M0 231.94 C-0.82 188.81, -3.55 142.78, 0 32 M0 231.94 C-0.91 160.79, -1.57 91.94, 0 32 M0 32 C0.44 10.62, 8.84 1.52, 32 0 M0 32 C-1.97 9.13, 12.97 -2.18, 32 0" stroke="#000000" stroke-width="1" fill="none"></path></g><g stroke-linecap="round" transform="translate(691.8244365452442 562.712575099601) rotate(0 68.2918460092576 49.83459033107965)"><path d="M5.98 6.52 C5.98 6.52, 5.98 6.52, 5.98 6.52 M5.98 6.52 C5.98 6.52, 5.98 6.52, 5.98 6.52 M3.09 15.94 C5.46 11.63, 11.21 6.03, 14.9 2.35 M3.09 15.94 C6.88 9.98, 12.35 6.07, 14.9 2.35 M3.49 21.58 C8.36 15.77, 14.52 10.46, 21.2 1.2 M3.49 21.58 C10.58 13.82, 17.27 5.46, 21.2 1.2 M3.22 27.98 C10.95 19.48, 16.69 9.07, 26.19 1.56 M3.22 27.98 C10.92 18.52, 20.59 8.68, 26.19 1.56 M3.62 33.62 C9.15 27.14, 18.87 18.04, 31.83 1.17 M3.62 33.62 C11.38 23.98, 19.01 15.04, 31.83 1.17 M3.36 40.02 C12.22 28.43, 24.42 18.34, 36.82 1.53 M3.36 40.02 C15.99 26.04, 26.39 12.87, 36.82 1.53 M3.1 46.42 C12.04 34.64, 24.26 23.73, 42.46 1.13 M3.1 46.42 C11.98 35.11, 22.11 24.35, 42.46 1.13 M3.49 52.06 C15.34 38.24, 26.24 23.32, 47.45 1.49 M3.49 52.06 C14.21 40.57, 22.89 28.88, 47.45 1.49 M3.23 58.46 C20.65 39.33, 39.44 18.73, 53.09 1.1 M3.23 58.46 C15.5 44.22, 28.76 29.48, 53.09 1.1 M3.62 64.1 C19.04 45.35, 39.06 25.3, 58.08 1.46 M3.62 64.1 C19.83 45.51, 36.57 26.12, 58.08 1.46 M3.36 70.5 C15.94 57.74, 27.2 39.73, 63.72 1.06 M3.36 70.5 C16.23 53.91, 30.41 38.72, 63.72 1.06 M3.1 76.9 C22.36 57.16, 41.29 32.61, 68.71 1.42 M3.1 76.9 C23.44 53.92, 45.46 27.99, 68.71 1.42 M2.84 83.29 C20.59 64.42, 36.44 47.18, 74.35 1.03 M2.84 83.29 C30 52.69, 56.31 21.14, 74.35 1.03 M4.55 87.43 C27.44 60.22, 47.39 34.23, 79.34 1.39 M4.55 87.43 C23.1 67.32, 41.47 45.16, 79.34 1.39 M5.6 92.32 C34.57 58.08, 64.72 25.74, 84.98 1 M5.6 92.32 C27.87 67.39, 49.47 42.6, 84.98 1 M8.62 94.94 C33.78 67.74, 56.82 39.62, 89.97 1.36 M8.62 94.94 C30.41 68.52, 54.02 42.76, 89.97 1.36 M11.63 97.56 C36.56 69.15, 63.82 40.32, 95.61 0.96 M11.63 97.56 C46.54 58.46, 78.78 20.17, 95.61 0.96 M15.31 99.43 C30.76 79.76, 49.14 58.88, 100.6 1.32 M15.31 99.43 C35.32 75.22, 56.94 50.78, 100.6 1.32 M20.3 99.79 C37.73 78.48, 56.51 61.59, 106.24 0.93 M20.3 99.79 C52.45 63.62, 83.34 27.77, 106.24 0.93 M25.28 100.15 C42.49 78.26, 59.99 59.75, 111.88 0.53 M25.28 100.15 C43.08 80.14, 61.48 59.6, 111.88 0.53 M30.93 99.76 C64.9 62.38, 96.62 26.29, 116.87 0.89 M30.93 99.76 C57.48 67.97, 87.14 34.88, 116.87 0.89 M35.91 100.12 C60.44 69.47, 87.54 37.34, 121.2 2.01 M35.91 100.12 C55.72 78.44, 75.77 55.37, 121.2 2.01 M41.56 99.72 C59.77 78.19, 82.71 53.79, 124.88 3.88 M41.56 99.72 C71.47 65.36, 99.3 33.42, 124.88 3.88 M46.54 100.08 C71.58 71.92, 95.77 43.04, 128.55 5.75 M46.54 100.08 C67.21 77.93, 87.97 53.13, 128.55 5.75 M52.19 99.69 C80.35 64.67, 111.82 32.27, 132.23 7.62 M52.19 99.69 C71.3 77.38, 91.14 55.13, 132.23 7.62 M57.17 100.05 C76.95 78.72, 92.66 57.92, 134.59 10.99 M57.17 100.05 C87.81 66.96, 118.1 32.06, 134.59 10.99 M62.16 100.41 C78.07 81.18, 93.98 60.44, 136.29 15.13 M62.16 100.41 C84.27 73.22, 109.17 46.38, 136.29 15.13 M67.8 100.02 C95.32 70.33, 120.84 43.25, 137.35 20.02 M67.8 100.02 C82.25 84.01, 97.04 65.79, 137.35 20.02 M72.79 100.38 C87.37 87, 99.35 68.66, 137.74 25.66 M72.79 100.38 C89.36 81.92, 103.93 64.89, 137.74 25.66 M78.43 99.98 C100.42 76.38, 120.69 49.18, 137.48 32.06 M78.43 99.98 C97.54 77.61, 116.59 55.71, 137.48 32.06 M83.42 100.34 C94.33 87.01, 104.76 71.61, 137.22 38.46 M83.42 100.34 C103.98 75.34, 125.77 51.97, 137.22 38.46 M89.06 99.95 C105.7 79.53, 124.08 62, 137.61 44.1 M89.06 99.95 C105.96 79.91, 122.49 60.68, 137.61 44.1 M94.05 100.31 C105.73 83.48, 121.97 69.93, 137.35 50.5 M94.05 100.31 C107.93 85.96, 119.04 71.99, 137.35 50.5 M99.69 99.91 C109.44 90.86, 117.89 80.07, 137.09 56.89 M99.69 99.91 C112.26 85.96, 124.9 71.93, 137.09 56.89 M104.68 100.27 C114.27 89.83, 119.27 82.52, 137.48 62.54 M104.68 100.27 C116.86 85.75, 129.02 72.15, 137.48 62.54 M110.32 99.88 C119.57 88.94, 131.8 77.76, 137.22 68.93 M110.32 99.88 C120.1 88.66, 129.08 78.4, 137.22 68.93 M114 101.75 C121.07 93.28, 125.35 86.76, 136.96 75.33 M114 101.75 C118.67 96.59, 124.58 89.92, 136.96 75.33 M120.3 100.6 C127.95 92.17, 133.71 87.21, 137.36 80.98 M120.3 100.6 C125.33 94.99, 130.86 87.79, 137.36 80.98" stroke="#be4bdb" stroke-width="0.5" fill="none"></path><path d="M24.92 0 M24.92 0 C46.25 -1.96, 66.17 -0.7, 111.67 0 M24.92 0 C50.33 0.38, 77.75 1.08, 111.67 0 M111.67 0 C128.23 0.84, 134.67 8.76, 136.58 24.92 M111.67 0 C129.09 -1.25, 138.85 10.21, 136.58 24.92 M136.58 24.92 C138 40.31, 138.31 54.82, 136.58 74.75 M136.58 24.92 C137.63 35.78, 136.77 47.67, 136.58 74.75 M136.58 74.75 C134.75 92.7, 128.27 101.46, 111.67 99.67 M136.58 74.75 C138.76 92.84, 127.77 98.52, 111.67 99.67 M111.67 99.67 C88.79 100.78, 66.11 99.9, 24.92 99.67 M111.67 99.67 C78.99 98.8, 47.18 100.35, 24.92 99.67 M24.92 99.67 C10.04 100.02, -0.16 90.09, 0 74.75 M24.92 99.67 C9.79 98.63, 1.67 89.36, 0 74.75 M0 74.75 C0.8 58.51, 2.01 43.69, 0 24.92 M0 74.75 C0.03 59.31, -0.44 46.02, 0 24.92 M0 24.92 C-1.59 8.91, 7.1 1.4, 24.92 0 M0 24.92 C0.98 8.88, 10.31 0.27, 24.92 0" stroke="#000000" stroke-width="1" fill="none"></path></g><g stroke-linecap="round" transform="translate(965.7788176282776 203.50476383550995) rotate(0 36.45307996440101 24.9172951655396)"><path d="M4.92 13.55 C4.92 13.55, 4.92 13.55, 4.92 13.55 M4.92 13.55 C4.92 13.55, 4.92 13.55, 4.92 13.55 M2.55 21.41 C6.69 16.57, 11.71 14.82, 16.4 9.04 M2.72 23.51 C5.52 18.31, 9.7 14.62, 15.64 6.66 M1.16 28.99 C6.92 24.38, 10.68 15.6, 26.28 3.48 M-0.41 31.29 C5.79 24.86, 12.06 19.51, 24.87 3.18 M3.52 33.52 C12.96 23.58, 21.83 11.88, 28.5 1.27 M2.95 34.41 C9.77 25.88, 17.75 17.82, 29.57 1.8 M5.91 34.84 C14.39 26.92, 22.19 17.8, 34.31 2.77 M6.59 36.16 C13.16 27.8, 20.37 20.59, 34.48 3.02 M7.17 39.7 C17.01 29.34, 28.47 18.69, 42.91 0.64 M8.77 39.23 C20.39 25.31, 33.98 9.31, 41.24 2.08 M12.31 40.44 C22.4 30.07, 31.91 16.89, 46.34 1.06 M12.47 42.79 C21.78 29.98, 32.85 18.06, 45.94 2.52 M13.59 44.64 C20.19 38.47, 27.74 26.5, 52.48 2.52 M14.96 44.56 C27.61 29.23, 42.21 12.54, 50.62 3.52 M18.66 47.92 C31.14 31.45, 46.59 17.17, 53.28 5.23 M18.55 46.11 C28.76 36.23, 38.83 24.64, 54.11 5.66 M23.67 48.16 C31.73 39.45, 37.38 32.09, 55.73 6.5 M22.25 47.45 C35.97 32.32, 48.95 17.21, 57.54 6.75 M26.14 49.57 C39.02 35.3, 47.47 22.78, 61.51 10.81 M27.19 47.58 C36.26 38.14, 43.49 29.81, 60.52 10.41 M33.94 48.33 C38.87 40.85, 49.84 32.41, 65.28 10.05 M32.18 48.53 C44.37 34.9, 57.98 19.5, 64.07 10.62 M34.91 48.44 C49.92 35.65, 61.64 24.46, 66.97 12.77 M35.88 49.72 C43.03 42.48, 50.27 34.47, 69.38 13.53 M39.16 53.89 C45.09 44.54, 53.29 38.61, 70.76 15.65 M39.66 52.46 C48.74 41, 58.31 30.1, 69.44 17.3 M46.61 50.22 C50.43 42.4, 59.57 39.37, 71.95 21.81 M47.73 50.05 C53.76 42.76, 59.17 36.3, 72.42 22.86 M52.83 46.47 C57.35 44.14, 61.58 38.74, 71.33 24.94 M53.5 48.11 C61.64 40.87, 66.73 33.83, 72.6 26.49" stroke="#868e96" stroke-width="0.5" fill="none"></path><path d="M48.87 1.42 C56.12 2.66, 63.4 7.74, 67.35 12.25 C71.31 16.75, 73.79 23.32, 72.6 28.46 C71.41 33.6, 66.1 39.52, 60.22 43.08 C54.33 46.65, 45.12 49.69, 37.28 49.87 C29.43 50.06, 19.39 47.52, 13.17 44.2 C6.95 40.87, 1.38 34.99, -0.05 29.94 C-1.47 24.89, 0.67 18.53, 4.62 13.9 C8.57 9.28, 15.77 3.95, 23.66 2.19 C31.55 0.43, 46.54 3.08, 51.95 3.35 C57.37 3.63, 56.26 3.64, 56.16 3.84 M24.19 1.17 C31.41 -0.73, 42.68 -1.31, 50.11 0.75 C57.54 2.8, 65.23 8.68, 68.77 13.48 C72.31 18.28, 72.92 24.3, 71.36 29.54 C69.8 34.78, 65.3 41.62, 59.4 44.92 C53.51 48.22, 43.99 49.56, 36 49.32 C28.01 49.08, 17.38 47.1, 11.45 43.49 C5.52 39.88, 1.63 33, 0.44 27.66 C-0.76 22.31, 0.1 15.92, 4.28 11.41 C8.46 6.9, 21.97 2.13, 25.53 0.59 C29.08 -0.94, 25.85 1.57, 25.61 2.2" stroke="#000000" stroke-width="1" fill="none"></path></g><g stroke-linecap="round" transform="translate(964.855954844369 227.7819315620909) rotate(0 36.91451135635543 47.98886476326197)"><path d="M18.46 0 M18.46 0 C31.35 1.09, 44.81 -0.73, 55.37 0 M18.46 0 C24.94 -0.43, 32.76 0.96, 55.37 0 M55.37 0 C66.51 1.66, 74.18 4.46, 73.83 18.46 M55.37 0 C68.61 1.36, 73.98 6.53, 73.83 18.46 M73.83 18.46 C75.85 34.06, 73.38 49.44, 73.83 77.52 M73.83 18.46 C74.46 30.47, 74.37 42.83, 73.83 77.52 M73.83 77.52 C72.56 90.87, 69.49 96.45, 55.37 95.98 M73.83 77.52 C74.04 89.66, 65.43 94.41, 55.37 95.98 M55.37 95.98 C41.5 97.52, 32.37 96.65, 18.46 95.98 M55.37 95.98 C40.02 96.35, 26.66 95.32, 18.46 95.98 M18.46 95.98 C5.11 96.28, 0.07 89.49, 0 77.52 M18.46 95.98 C5.1 94.81, 0.39 91.31, 0 77.52 M0 77.52 C1.19 55.89, -0.63 39.49, 0 18.46 M0 77.52 C0.14 57.39, 0.89 38.83, 0 18.46 M0 18.46 C0.01 7.73, 7.69 0.26, 18.46 0 M0 18.46 C0.53 6.87, 7.44 -0.74, 18.46 0" stroke="#000000" stroke-width="1" fill="none"></path></g><g transform="translate(988.8787997883709 263.7707963253524) rotate(0 12.891666412353516 12)"><text x="12.891666412353516" y="0" font-family="Virgil, Segoe UI Emoji" font-size="20px" fill="#000000" text-anchor="middle" style="white-space: pre;" direction="ltr" dominant-baseline="text-before-edge">S3</text></g><g transform="translate(720.5912810286231 588.5471654306803) rotate(0 39.525001525878906 24)"><text x="39.525001525878906" y="0" font-family="Virgil, Segoe UI Emoji" font-size="20px" fill="#000000" text-anchor="middle" style="white-space: pre;" direction="ltr" dominant-baseline="text-before-edge">Morty</text><text x="39.525001525878906" y="24" font-family="Virgil, Segoe UI Emoji" font-size="20px" fill="#000000" text-anchor="middle" style="white-space: pre;" direction="ltr" dominant-baseline="text-before-edge">Registry</text></g><g transform="translate(533.7593179076318 311.28927636745993) rotate(0 43.125 12)"><text x="43.125" y="0" font-family="Virgil, Segoe UI Emoji" font-size="20px" fill="#000000" text-anchor="middle" style="white-space: pre;" direction="ltr" dominant-baseline="text-before-edge">Gateway</text></g><g mask="url(#mask-TL4u4vhpbp3sZ579gM_b3)" stroke-linecap="round"><g transform="translate(54.345204383574355 321.5874776580704) rotate(0 86.6856769350411 122.25504858998966)"><path d="M-0.07 -1.04 C28.71 39.97, 143.72 204.45, 172.59 245.55 M-1.57 1.03 C27.61 41.78, 145.96 203.55, 174.94 244.01" stroke="#000000" stroke-width="1" fill="none"></path></g><g transform="translate(54.345204383574355 321.5874776580704) rotate(0 86.6856769350411 122.25504858998966)"><path d="M148.36 226.05 C159.17 231.93, 166.44 238.03, 174.89 242.81 M149.29 227.64 C156.88 232.09, 161.34 236.13, 174.66 243.38" stroke="#000000" stroke-width="1" fill="none"></path></g><g transform="translate(54.345204383574355 321.5874776580704) rotate(0 86.6856769350411 122.25504858998966)"><path d="M164.97 214.01 C170.85 223.41, 173.24 233.06, 174.89 242.81 M165.91 215.6 C169.39 223.06, 169.83 230.03, 174.66 243.38" stroke="#000000" stroke-width="1" fill="none"></path></g></g><mask id="mask-TL4u4vhpbp3sZ579gM_b3"><rect x="0" y="0" fill="#fff" width="327.633065916061" height="666.0275376086911"></rect><rect x="65.94747102628253" y="395.80750763338074" fill="#000" width="150.0833282470703" height="96" opacity="1"></rect></mask><g stroke-linecap="round" transform="translate(167.55643471735402 10) rotate(0 126 89)"><path d="M32 0 M32 0 C80.5 0.29, 131.29 0.67, 220 0 M220 0 C242.9 1.99, 252.26 10.5, 252 32 M252 32 C251.41 70.27, 251.96 108.07, 252 146 M252 146 C251.21 166.34, 242.1 176.84, 220 178 M220 178 C178.07 175.91, 134.55 176.19, 32 178 M32 178 C11.72 179.67, 0.04 168.44, 0 146 M0 146 C1.63 113.97, 1.44 79.84, 0 32 M0 32 C1.67 11.44, 10.71 0.48, 32 0" stroke="#000000" stroke-width="1.5" fill="none" stroke-dasharray="8 9"></path></g><g transform="translate(172.55643471735402 39) rotate(0 116.55833435058594 60)"><text x="0" y="0" font-family="Virgil, Segoe UI Emoji" font-size="20px" fill="#000000" text-anchor="start" style="white-space: pre;" direction="ltr" dominant-baseline="text-before-edge">1. morty new</text><text x="0" y="24" font-family="Virgil, Segoe UI Emoji" font-size="20px" fill="#000000" text-anchor="start" style="white-space: pre;" direction="ltr" dominant-baseline="text-before-edge">2. write your function</text><text x="0" y="48" font-family="Virgil, Segoe UI Emoji" font-size="20px" fill="#000000" text-anchor="start" style="white-space: pre;" direction="ltr" dominant-baseline="text-before-edge">3. compress the folder </text><text x="0" y="72" font-family="Virgil, Segoe UI Emoji" font-size="20px" fill="#000000" text-anchor="start" style="white-space: pre;" direction="ltr" dominant-baseline="text-before-edge">(tar)</text><text x="0" y="96" font-family="Virgil, Segoe UI Emoji" font-size="20px" fill="#000000" text-anchor="start" style="white-space: pre;" direction="ltr" dominant-baseline="text-before-edge">4. write intents.json</text></g><g transform="translate(65.94747102628253 395.80750763338074) rotate(0 75.08341029233293 48.0350186146793)"><text x="75.04166412353516" y="0" font-family="Virgil, Segoe UI Emoji" font-size="20px" fill="#000000" text-anchor="middle" style="white-space: pre;" direction="ltr" dominant-baseline="text-before-edge">(2) intents.json</text><text x="75.04166412353516" y="24" font-family="Virgil, Segoe UI Emoji" font-size="20px" fill="#000000" text-anchor="middle" style="white-space: pre;" direction="ltr" dominant-baseline="text-before-edge">+</text><text x="75.04166412353516" y="48" font-family="Virgil, Segoe UI Emoji" font-size="20px" fill="#000000" text-anchor="middle" style="white-space: pre;" direction="ltr" dominant-baseline="text-before-edge">function.tar</text><text x="75.04166412353516" y="72" font-family="Virgil, Segoe UI Emoji" font-size="20px" fill="#000000" text-anchor="middle" style="white-space: pre;" direction="ltr" dominant-baseline="text-before-edge">as inputs</text></g><g mask="url(#mask-iEghC86ZHKiCbOMNlzvUT)" stroke-linecap="round"><g transform="translate(172.6365551245674 195.7866547392323) rotate(0 -59.39820646613816 38.60209352048378)"><path d="M-0.09 0.82 C-19.94 13.78, -98.46 64.38, -118.37 77 M-1.6 0.2 C-21.57 12.9, -98.92 62.93, -118.7 75.29" stroke="#000000" stroke-width="1" fill="none"></path></g><g transform="translate(172.6365551245674 195.7866547392323) rotate(0 -59.39820646613816 38.60209352048378)"><path d="M-99.08 53.43 C-105.87 60.06, -113.22 67.4, -116.81 73.38 M-100.77 51.18 C-106.53 59.5, -111.61 66.27, -118.47 74.48" stroke="#000000" stroke-width="1" fill="none"></path></g><g transform="translate(172.6365551245674 195.7866547392323) rotate(0 -59.39820646613816 38.60209352048378)"><path d="M-88.05 70.74 C-98.72 71.11, -110.04 72.2, -116.81 73.38 M-89.74 68.49 C-98.8 71.66, -107.17 73.26, -118.47 74.48" stroke="#000000" stroke-width="1" fill="none"></path></g></g><mask id="mask-iEghC86ZHKiCbOMNlzvUT"><rect x="0" y="0" fill="#fff" width="392.17127889286644" height="371.9963008413806"></rect><rect x="102.62752644659463" y="221.89147779030645" fill="#000" width="20.483333587646484" height="24" opacity="1"></rect></mask><g transform="translate(102.62752644659463 221.89147779030645) rotate(0 10.610822211834602 12.497270469409614)"><text x="10.241666793823242" y="0" font-family="Virgil, Segoe UI Emoji" font-size="20px" fill="#000000" text-anchor="middle" style="white-space: pre;" direction="ltr" dominant-baseline="text-before-edge">(1)</text></g><g mask="url(#mask-J6rQjOjDc1QTJ3IP8ZftB)" stroke-linecap="round"><g transform="translate(374.37328711866917 547.0323397091151) rotate(0 58.65045227208532 -67.74945514798901)"><path d="M0.06 1.08 C19.74 -21.49, 99.07 -112.05, 118.66 -134.6 M-1.36 0.61 C18.13 -22.42, 97.58 -113.79, 117.82 -136.58" stroke="#000000" stroke-width="1" fill="none"></path></g><g transform="translate(374.37328711866917 547.0323397091151) rotate(0 58.65045227208532 -67.74945514798901)"><path d="M108.76 -108.28 C110.97 -119.73, 115.45 -127.51, 115.92 -137.22 M106.4 -109.31 C110.69 -115.58, 111.91 -123.4, 117.59 -136.22" stroke="#000000" stroke-width="1" fill="none"></path></g><g transform="translate(374.37328711866917 547.0323397091151) rotate(0 58.65045227208532 -67.74945514798901)"><path d="M93.33 -121.81 C101.01 -128.56, 110.86 -131.63, 115.92 -137.22 M90.97 -122.84 C99.09 -125.7, 104.25 -130.07, 117.59 -136.22" stroke="#000000" stroke-width="1" fill="none"></path></g></g><mask id="mask-J6rQjOjDc1QTJ3IP8ZftB"><rect x="0" y="0" fill="#fff" width="592.8317059169274" height="781.8913711298619"></rect><rect x="386.2691644560307" y="455.60282399874177" fill="#000" width="94.66666412353516" height="48" opacity="1"></rect></mask><g transform="translate(386.2691644560307 455.60282399874177) rotate(0 46.75457493472379 23.68006056238437)"><text x="47.33333206176758" y="0" font-family="Virgil, Segoe UI Emoji" font-size="20px" fill="#000000" text-anchor="middle" style="white-space: pre;" direction="ltr" dominant-baseline="text-before-edge">(3) POST</text><text x="47.33333206176758" y="24" font-family="Virgil, Segoe UI Emoji" font-size="20px" fill="#000000" text-anchor="middle" style="white-space: pre;" direction="ltr" dominant-baseline="text-before-edge">/skills</text></g><g mask="url(#mask-B3PLxr75AxBooboOQcVsO)" stroke-linecap="round"><g transform="translate(654.8662231479257 436.66771215327935) rotate(0 40.251452500603364 60.65717062379463)"><path d="M0.55 -1.07 C14.02 19.17, 67.81 100.85, 81.12 121.21 M-0.62 0.98 C12.77 21.39, 67.37 102.22, 80.79 122.38" stroke="#000000" stroke-width="1" fill="none"></path></g><g transform="translate(654.8662231479257 436.66771215327935) rotate(0 40.251452500603364 60.65717062379463)"><path d="M54.78 106.64 C63.26 111.12, 70.93 117.35, 82.76 123.4 M56.78 104.21 C63.19 109.17, 68.75 113.71, 80.61 123.36" stroke="#000000" stroke-width="1" fill="none"></path></g><g transform="translate(654.8662231479257 436.66771215327935) rotate(0 40.251452500603364 60.65717062379463)"><path d="M71.82 95.21 C74.74 103.48, 76.86 113.44, 82.76 123.4 M73.82 92.78 C75.52 100.73, 76.45 108.37, 80.61 123.36" stroke="#000000" stroke-width="1" fill="none"></path></g></g><mask id="mask-B3PLxr75AxBooboOQcVsO"><rect x="0" y="0" fill="#fff" width="834.8166113545274" height="658.5596925720047"></rect><rect x="616.6330813747616" y="485.61370236264247" fill="#000" width="156.4166717529297" height="24" opacity="1"></rect></mask><g transform="translate(616.6330813747616 485.61370236264247) rotate(0 78.48459427376747 11.71118041443151)"><text x="78.20833587646484" y="0" font-family="Virgil, Segoe UI Emoji" font-size="20px" fill="#000000" text-anchor="middle" style="white-space: pre;" direction="ltr" dominant-baseline="text-before-edge">(4) POST /build</text></g><g mask="url(#mask-Nd0H1j5mnyY7Iu_AnI9Wf)" stroke-linecap="round"><g transform="translate(811.0802458093265 549.893434241877) rotate(0 73.9481248230041 -110.53094334996422)"><path d="M-0.95 0.76 C23.81 -36.04, 123.92 -183.23, 148.85 -220 M0.75 0.11 C25.33 -37.11, 123.37 -184.83, 147.87 -221.82" stroke="#000000" stroke-width="1" fill="none"></path></g><g transform="translate(811.0802458093265 549.893434241877) rotate(0 73.9481248230041 -110.53094334996422)"><path d="M142.11 -192.76 C143.87 -202.44, 146.39 -212.05, 147.38 -222.28 M141.63 -192.71 C143.64 -203.17, 145.58 -213.59, 148.83 -222.08" stroke="#000000" stroke-width="1" fill="none"></path></g><g transform="translate(811.0802458093265 549.893434241877) rotate(0 73.9481248230041 -110.53094334996422)"><path d="M125 -204.1 C132.34 -209.99, 140.36 -215.96, 147.38 -222.28 M124.53 -204.05 C132.33 -210.67, 140.16 -217.19, 148.83 -222.08" stroke="#000000" stroke-width="1" fill="none"></path></g></g><mask id="mask-Nd0H1j5mnyY7Iu_AnI9Wf"><rect x="0" y="0" fill="#fff" width="1059.9916860015492" height="870.473277743803"></rect><rect x="799.1276330807307" y="427.603512490914" fill="#000" width="172.81666564941406" height="24" opacity="1"></rect></mask><g transform="translate(799.1276330807307 427.603512490914) rotate(0 85.90073755159989 11.758978400998785)"><text x="86.40833282470703" y="0" font-family="Virgil, Segoe UI Emoji" font-size="20px" fill="#000000" text-anchor="middle" style="white-space: pre;" direction="ltr" dominant-baseline="text-before-edge">(6) upload rootfs</text></g><g stroke-linecap="round" transform="translate(675.4580418618345 644.3426722825479) rotate(0 87.21053307938973 63.67753208971317)"><path d="M31.84 0 M31.84 0 C69.12 -0.87, 104.83 -0.71, 142.58 0 M142.58 0 C163.56 1.18, 174.79 10.74, 174.42 31.84 M174.42 31.84 C175.4 44.3, 174.02 56.28, 174.42 95.52 M174.42 95.52 C174.03 115.63, 162.5 126.86, 142.58 127.36 M142.58 127.36 C107.86 125.75, 77.57 125.68, 31.84 127.36 M31.84 127.36 C9.52 126.65, -1.12 117.78, 0 95.52 M0 95.52 C0.61 70.81, 0.45 44.48, 0 31.84 M0 31.84 C-0.25 9.75, 10.59 -1.84, 31.84 0" stroke="#000000" stroke-width="1.5" fill="none" stroke-dasharray="8 9"></path></g><g transform="translate(684.1602436423962 684.0202043722611) rotate(0 78.50833129882812 24)"><text x="78.50833129882812" y="0" font-family="Virgil, Segoe UI Emoji" font-size="20px" fill="#000000" text-anchor="middle" style="white-space: pre;" direction="ltr" dominant-baseline="text-before-edge">(5) Repack the </text><text x="78.50833129882812" y="24" font-family="Virgil, Segoe UI Emoji" font-size="20px" fill="#000000" text-anchor="middle" style="white-space: pre;" direction="ltr" dominant-baseline="text-before-edge">tar -&gt; rootfs</text></g></svg>